<?xml version="1.0" encoding="UTF-8" standalone="no"?>
<svg
   id="Warstwa_1"
   viewBox="0 0 430 430"
   version="1.1"
   sodipodi:docname="icon.svg"
   xml:space="preserve"
   inkscape:version="1.3.2 (091e20e, 2023-11-25)"
   xmlns:inkscape="http://www.inkscape.org/namespaces/inkscape"
   xmlns:sodipodi="http://sodipodi.sourceforge.net/DTD/sodipodi-0.dtd"
   xmlns="http://www.w3.org/2000/svg"
   xmlns:svg="http://www.w3.org/2000/svg"><sodipodi:namedview
     id="namedview6"
     pagecolor="#ffffff"
     bordercolor="#000000"
     borderopacity="0.25"
     inkscape:showpageshadow="2"
     inkscape:pageopacity="0.0"
     inkscape:pagecheckerboard="0"
     inkscape:deskcolor="#d1d1d1"
     inkscape:zoom="1.6794594"
     inkscape:cx="214.95012"
     inkscape:cy="205.72096"
     inkscape:window-width="1728"
     inkscape:window-height="1348"
     inkscape:window-x="3224"
     inkscape:window-y="472"
     inkscape:window-maximized="0"
     inkscape:current-layer="Warstwa_1"
     showgrid="true"><inkscape:grid
       id="grid1"
       units="px"
       originx="0"
       originy="0"
       spacingx="1"
       spacingy="1"
       empcolor="#0099e5"
       empopacity="0.30196078"
       color="#0099e5"
       opacity="0.14902"
       empspacing="5"
       dotted="false"
       gridanglex="30"
       gridanglez="30"
       visible="true" /></sodipodi:namedview><defs
     id="defs2"><style
       id="style1">.cls-1{fill:#fff;}.cls-2{fill:url(#Gradient_bez_nazwy_6);}</style><radialGradient
       id="Gradient_bez_nazwy_6"
       cx="419.03"
       cy="39.43"
       fx="419.03"
       fy="39.43"
       r="459.36"
       gradientUnits="userSpaceOnUse"
       gradientTransform="matrix(1.5189855,0,0,1.5189855,-111.32844,-111.50658)"><stop
         offset="0"
         stop-color="#339ebf"
         id="stop1" /><stop
         offset="1"
         stop-color="#1e90ff"
         id="stop2" /></radialGradient></defs><path
     class="cls-2"
     d="M 372.27096,0.27556601 H 58.235913 C 26.382788,0.27556601 0.46889662,26.189457 0.46889662,58.042581 V 372.09284 c 0,31.85312 25.91389138,57.767 57.76701638,57.767 H 372.27096 c 31.85312,0 57.7822,-25.91388 57.7822,-57.767 V 58.042581 c 0,-31.853124 -25.92908,-57.76701499 -57.7822,-57.76701499 z"
     id="path2"
     style="fill:url(#Gradient_bez_nazwy_6);stroke-width:1.51898" /><g
     transform="matrix(4.3109139,0,0,4.3109139,51307.055,54098.67)"
     id="g3"><path
       d="M 81.249,324.048 H 78.86 a 1.962,1.962 0 0 0 -1.855,1.318 l -14.9,42.741 a 1.963,1.963 0 0 0 1.855,2.61 h 2.388 a 1.963,1.963 0 0 0 1.854,-1.317 l 14.9,-42.741 a 1.964,1.964 0 0 0 -1.854,-2.611"
       transform="translate(-11897.906,-12845.645)"
       fill="hsla(240, 75%, 76%, 1)"
       id="path1" /><path
       d="m 14.677,336.886 v -1.948 a 1.964,1.964 0 0 0 -1.963,-1.964 H 8.957 v -1.805 c -0.006,-2.11 0.471,-3.374 0.9,-3.834 l 0.02,-0.025 a 2.2,2.2 0 0 1 1.061,-0.579 25.624,25.624 0 0 1 4.2,-0.325 h 0.722 a 1.964,1.964 0 0 0 1.963,-1.964 v -1.76 a 1.96,1.96 0 0 0 -1.588,-1.928 c -0.238,-0.046 -0.5,-0.093 -0.8,-0.138 -0.371,-0.057 -2.317,-0.085 -2.7,-0.086 h -0.027 c -3.163,0 -5.856,0.739 -7.66,2.674 v 0 c -1.762,1.941 -2.4,4.687 -2.4,8.023 V 368 A 1.964,1.964 0 0 0 4.6,369.962 H 6.993 A 1.962,1.962 0 0 0 8.957,368 v -29.151 h 3.756 a 1.962,1.962 0 0 0 1.963,-1.963"
       transform="translate(-11885.184,-12844.891)"
       fill="hsla(0, 0%, 100%, 1)"
       id="path2-8" /><path
       d="m 43.125,337.381 a 14.827,14.827 0 0 0 -7.629,-1.813 17.368,17.368 0 0 0 -7.612,1.546 12.219,12.219 0 0 0 -5.184,4.636 l -0.009,0.013 a 1.694,1.694 0 0 0 -0.254,0.895 1.792,1.792 0 0 0 1.2,1.684 v 0 l 1.927,0.686 a 2.748,2.748 0 0 0 3.053,-0.863 7.86,7.86 0 0 1 0.582,-0.637 c 1.261,-1.224 3.132,-1.945 6.044,-1.956 a 10.514,10.514 0 0 1 3.686,0.574 5.038,5.038 0 0 1 2.175,1.529 c 1.091,1.339 1.778,3.408 1.842,6.374 -2.806,0.044 -5.3,0.161 -7.446,0.362 a 34.983,34.983 0 0 0 -7.946,1.654 v 0 h -0.009 l -0.023,0.006 v 0 a 12.629,12.629 0 0 0 -6.1,3.776 10.233,10.233 0 0 0 -2.216,6.72 v 0.064 a 10.849,10.849 0 0 0 1.67,6.015 10.4,10.4 0 0 0 4.665,3.87 16.69,16.69 0 0 0 6.692,1.232 15.255,15.255 0 0 0 5.159,-0.965 16.393,16.393 0 0 0 5.07,-2.992 c 0.3,-0.251 0.573,-0.52 0.843,-0.8 a 9.263,9.263 0 0 0 1.146,3.251 1.95,1.95 0 0 0 1.673,0.935 v 0 l 1.149,-0.013 a 1.964,1.964 0 0 0 1.941,-1.963 v -21.035 a 18.409,18.409 0 0 0 -1.426,-7.523 11.334,11.334 0 0 0 -4.662,-5.262 m -1.6,24.9 a 11.575,11.575 0 0 1 -3.878,4.041 9.525,9.525 0 0 1 -5.235,1.486 7.992,7.992 0 0 1 -5.25,-1.5 4.367,4.367 0 0 1 -1.228,-1.59 5.665,5.665 0 0 1 -0.42,-2.242 5.093,5.093 0 0 1 0.655,-2.579 5.261,5.261 0 0 1 2.41,-1.934 22.124,22.124 0 0 1 6.1,-1.587 68.356,68.356 0 0 1 8.281,-0.581 v 1.215 a 10.274,10.274 0 0 1 -1.432,5.269"
       transform="translate(-11888.733,-12848.114)"
       fill="hsla(0, 0%, 100%, 1)"
       id="path3" /></g></svg>
